<svg width="331" height="74" viewBox="0 0 331 74" fill="none" xmlns="http://www.w3.org/2000/svg">
<path d="M0 4.48714C6.05126 4.06729 11.3722 3.85737 15.9628 3.85737C28.9 3.85737 35.3686 8.44947 35.3686 17.6337C35.3686 21.8847 34.2731 25.6108 32.0821 28.8122C30.9345 30.5441 29.1608 31.9348 26.7612 32.9844C24.3615 33.9816 21.4663 34.4802 18.0755 34.4802H6.49467V58.9627H0V4.48714ZM16.0411 4.64458C13.0154 4.64458 9.8333 4.82827 6.49467 5.19564V33.6929H18.0755C25.4309 33.3781 29.1086 28.0775 29.1086 17.7911C29.1086 13.5926 28.0132 10.365 25.8222 8.10835C23.6312 5.79917 20.3708 4.64458 16.0411 4.64458Z" fill="#EBF7E3"/>
<path d="M51.6052 58.9627C47.0146 58.9627 44.1194 57.7556 42.9196 55.3414C42.6588 54.8166 42.5284 54.3443 42.5284 53.9245V0H48.0058V53.3734C48.0058 54.8954 48.2927 56.0762 48.8665 56.9159C49.4925 57.7031 50.1185 58.123 50.7445 58.1754L51.6052 58.3329H54.031V58.9627H51.6052Z" fill="#EBF7E3"/>
<path d="M90.7194 58.9627C87.1721 58.9627 84.7464 58.2804 83.4422 56.9159C82.2424 55.7613 81.6425 54.7642 81.6425 53.9245V52.2713C79.0863 56.9421 74.9913 59.2775 69.3574 59.2775C62.7845 59.2775 59.0546 56.2861 58.1678 50.3033C58.0634 49.6735 58.0113 49.0437 58.0113 48.4139C58.0113 47.7317 58.1156 46.9969 58.3243 46.2097C58.5329 45.4225 59.1328 44.5566 60.124 43.6119C62.1063 41.7226 66.4622 40.568 73.1916 40.1481C74.8609 39.9907 76.3998 39.912 77.8083 39.912C79.2168 39.912 80.4948 39.9645 81.6425 40.0694V27.0016C81.5381 26.9491 81.5381 26.7129 81.6425 26.2931C81.7468 25.8208 81.6425 25.2435 81.3295 24.5612C81.0687 23.8265 80.7035 23.118 80.234 22.4357C79.7645 21.7535 78.9298 21.1762 77.73 20.7038C76.5302 20.179 74.9652 19.9166 73.0351 19.9166C71.1049 19.9166 68.8357 20.284 66.2274 21.0187C63.6713 21.701 61.7933 22.3832 60.5935 23.0655L60.2805 22.5144C64.9233 20.3627 69.6443 19.2868 74.4436 19.2868C79.8167 19.2868 83.364 20.2578 85.0854 22.1996C86.4418 23.7215 87.1199 25.3222 87.1199 27.0016V53.3734C87.1199 54.8954 87.4068 56.0762 87.9807 56.9159C88.6066 57.7031 89.2326 58.123 89.8586 58.1754L90.7194 58.3329H93.1451V58.9627H90.7194ZM70.6094 58.6478C73.3742 58.6478 75.8521 57.7031 78.043 55.8138C80.2862 53.872 81.486 52.0089 81.6425 50.2245V40.6992C80.234 40.5942 78.7994 40.5417 77.3388 40.5417C75.9303 40.5417 74.5218 40.6205 73.1133 40.7779C69.1487 41.2502 66.5665 42.1424 65.3667 43.4545C64.1669 44.7665 63.567 46.5771 63.567 48.8863C63.567 49.3061 63.593 49.7784 63.6452 50.3033C64.1147 55.8663 66.4361 58.6478 70.6094 58.6478Z" fill="#EBF7E3"/>
<path d="M129.924 58.9627C127.785 58.9627 126.142 58.4903 124.994 57.5457C123.899 56.601 123.325 55.6563 123.273 54.7117L123.195 53.3734V28.6547C123.195 24.5087 122.125 21.8584 119.986 20.7038C118.891 20.179 117.535 19.9166 115.917 19.9166C112.579 19.9166 109.579 21.2549 106.919 23.9314C104.258 26.5555 102.928 28.9172 102.928 31.0164V58.9627H97.4506V19.6017H102.928V28.576C103.815 26.3193 105.458 24.2201 107.858 22.2783C110.257 20.284 112.892 19.2868 115.761 19.2868C118.63 19.2868 120.951 19.5755 122.725 20.1528C124.551 20.6776 125.881 21.4386 126.716 22.4357C128.02 24.0626 128.672 26.1619 128.672 28.7335V53.3734C128.672 54.8954 128.959 56.0762 129.533 56.9159C130.159 57.7031 130.785 58.123 131.411 58.1754L132.271 58.3329H134.697V58.9627H129.924Z" fill="#EBF7E3"/>
<path d="M138.247 20.2315V19.6017H139.89V11.7296H145.368V19.6017H157.34V20.2315H145.368V48.8863C145.368 52.2975 145.733 54.7642 146.463 56.2861C147.246 57.8081 148.837 58.569 151.236 58.569C153.688 58.569 156.166 58.0705 158.67 57.0733L158.905 57.7031C156.297 58.7002 153.297 59.1988 149.906 59.1988C146.568 59.1988 144.064 58.5166 142.394 57.1521C140.725 55.7351 139.89 52.9536 139.89 48.8075V20.2315H138.247Z" fill="#EBF7E3"/>
<path d="M200.755 28.2267V27.5969H202.398V19.7247H207.875V27.5969H219.847V28.2267H207.875V56.8814C207.875 60.2927 208.24 62.7593 208.971 64.2813C209.753 65.8033 211.344 66.5642 213.744 66.5642C216.196 66.5642 218.674 66.0657 221.178 65.0685L221.412 65.6983C218.804 66.6954 215.805 67.194 212.414 67.194C209.075 67.194 206.571 66.5117 204.902 65.1472C203.233 63.7302 202.398 60.9487 202.398 56.8027V28.2267H200.755Z" fill="#EBF7E3"/>
<path d="M245.825 67.2727C240.347 67.2727 235.887 65.6983 232.444 62.5494C229.001 59.4005 227.28 54.546 227.28 47.9859C227.28 41.4257 229.053 36.335 232.601 32.7138C236.2 29.0926 240.739 27.282 246.216 27.282C251.746 27.282 256.232 28.8565 259.675 32.0053C263.118 35.1542 264.839 40.0087 264.839 46.5689C264.839 53.129 263.04 58.2197 259.44 61.8409C255.893 65.4621 251.354 67.2727 245.825 67.2727ZM246.373 27.9118C242.408 27.9118 239.122 29.6962 236.513 33.2649C233.905 36.7811 232.601 41.7144 232.601 48.0646C232.601 54.3623 233.801 59.0332 236.2 62.0771C238.6 65.121 241.782 66.643 245.747 66.643C249.711 66.643 252.998 64.8848 255.606 61.3686C258.214 57.7999 259.518 52.8666 259.518 46.5689C259.518 40.2187 258.319 35.5216 255.919 32.4777C253.519 29.4338 250.337 27.9118 246.373 27.9118Z" fill="#EBF7E3"/>
<path d="M286.011 30.982V29.3288C283.664 30.2735 281.525 32.189 279.595 35.0755C277.665 37.9095 276.647 40.586 276.543 43.1051V66.9578H271.066V27.5969H276.543V40.1137C277.378 37.0698 278.969 34.2096 281.316 31.533C283.664 28.804 286.324 27.387 289.298 27.282H289.611C290.654 27.282 291.515 27.6494 292.193 28.3841C292.923 29.0664 293.288 29.9323 293.288 30.982C293.288 32.0316 292.923 32.8975 292.193 33.5798C291.515 34.262 290.654 34.6032 289.611 34.6032C288.567 34.6032 287.707 34.262 287.028 33.5798C286.35 32.8975 286.011 32.0316 286.011 30.982Z" fill="#EBF7E3"/>
<path d="M302.138 47.7497C302.138 54.2574 303.26 59.0332 305.503 62.0771C307.799 65.121 310.798 66.643 314.502 66.643C319.718 66.643 324.361 65.8557 328.43 64.2813L328.665 64.8323C324.492 66.4593 319.771 67.2727 314.502 67.2727C309.285 67.2727 305.034 65.6983 301.747 62.5494C298.461 59.4005 296.818 54.546 296.818 47.9859C296.818 41.4257 298.539 36.335 301.982 32.7138C305.425 29.0926 309.807 27.282 315.128 27.282C319.405 27.282 323.005 28.5678 325.926 31.1394C328.847 33.711 330.308 37.5159 330.308 42.5541C330.308 42.8165 330.308 43.0789 330.308 43.3413H302.373C302.217 44.7583 302.138 46.2278 302.138 47.7497ZM324.987 42.7115C324.935 37.6733 323.97 33.9471 322.092 31.533C320.214 29.1189 317.788 27.9118 314.815 27.9118C311.841 27.9118 309.181 29.2238 306.833 31.8479C304.538 34.472 303.077 38.0932 302.451 42.7115H324.987Z" fill="#EBF7E3"/>
<path d="M186.539 22.3472C185.704 21.6649 184.348 21.0876 182.47 20.6153C180.644 20.1429 179.262 19.9068 178.323 19.9068C177.384 19.9068 176.836 19.9068 176.68 19.9068C173.863 19.9593 171.828 20.694 170.576 22.111C169.324 23.4755 168.698 25.0237 168.698 26.7556C168.698 28.4875 169.246 29.9569 170.341 31.164C171.437 32.3186 172.793 33.237 174.41 33.9193C176.08 34.549 177.853 35.2838 179.731 36.1235C181.661 36.9632 183.435 37.8291 185.052 38.7213C186.722 39.561 188.104 40.8206 189.199 42.5C190.295 44.1269 190.843 46.1736 190.843 48.6403C190.843 51.1069 189.982 53.2061 188.26 54.938C186.539 56.6699 184.609 57.8245 182.47 58.4018C180.383 58.9791 178.114 59.2677 175.662 59.2677C170.341 59.2677 166.351 58.0869 163.69 55.7252L164.16 55.2529C165.203 56.25 166.742 57.0635 168.776 57.6933C170.863 58.323 172.872 58.6379 174.802 58.6379C177.879 58.6379 180.41 57.7982 182.392 56.1188C184.426 54.3869 185.444 52.2615 185.444 49.7424C185.444 47.1708 184.687 45.124 183.174 43.6021C181.661 42.0276 179.81 40.8206 177.619 39.9809C175.48 39.0887 173.315 38.2227 171.124 37.383C168.933 36.4909 167.081 35.2838 165.568 33.7618C164.055 32.1874 163.299 30.3768 163.299 28.33C163.299 26.2833 163.769 24.6301 164.708 23.3705C165.647 22.0585 166.898 21.1401 168.463 20.6153C171.124 19.7231 173.784 19.277 176.445 19.277C180.931 19.277 184.426 20.1167 186.93 21.7961L186.539 22.3472Z" fill="#7EB54D"/>
<path d="M191.779 15.149C187.032 13.3122 182.545 12.3938 178.32 12.3938C174.147 12.3938 170.886 13.2859 168.539 15.0703C166.191 16.8547 165.017 19.3213 165.017 22.4702C165.017 26.3013 167 29.2665 170.964 31.3657C172.738 32.2579 174.668 33.0976 176.755 33.8848C178.894 34.6196 181.032 35.4593 183.171 36.4039C185.31 37.3486 187.266 38.4245 189.04 39.6315C190.814 40.8386 192.248 42.518 193.344 44.6697C194.439 46.769 194.987 49.4718 194.987 52.7781C194.987 56.0319 194.074 58.8134 192.248 61.1226C190.422 63.4318 188.205 65.0062 185.597 65.8459C183.041 66.6331 180.041 67.0267 176.598 67.0267C170.182 67.0267 164.704 65.426 160.166 62.2247L160.557 61.5949C162.279 62.9594 164.496 64.0878 167.208 64.98C169.973 65.8197 172.79 66.2395 175.659 66.2395C179.885 66.2395 183.484 65.2686 186.458 63.3268C189.483 61.3325 190.996 58.4198 190.996 54.5887C190.996 50.3902 189.014 47.1101 185.049 44.7484C183.276 43.6988 181.319 42.7279 179.181 41.8357C177.094 40.9436 174.981 40.0251 172.842 39.0805C170.704 38.0833 168.747 36.9812 166.974 35.7742C163.009 33.1501 161.027 29.4239 161.027 24.5957C161.027 20.7645 162.305 17.6681 164.861 15.3065C167.417 12.8923 171.251 11.6853 176.364 11.6853C181.528 11.6853 186.771 12.5775 192.092 14.3618L191.779 15.149Z" fill="#7EB54D"/>
</svg>
