<svg width="170" height="38" viewBox="0 0 170 38" fill="none" xmlns="http://www.w3.org/2000/svg">
<path d="M0 2.30421C3.1079 2.08861 5.8407 1.98081 8.19842 1.98081C14.8429 1.98081 18.1651 4.33892 18.1651 9.05514C18.1651 11.2381 17.6025 13.1515 16.4772 14.7954C15.8878 15.6848 14.9769 16.399 13.7444 16.938C12.512 17.45 11.025 17.706 9.28351 17.706H3.33563V30.2781H0V2.30421ZM8.23861 2.38506C6.68466 2.38506 5.05033 2.47938 3.33563 2.66803V17.3018H9.28351C13.0612 17.1401 14.9501 14.4182 14.9501 9.13599C14.9501 6.98 14.3874 5.32259 13.2621 4.16375C12.1369 2.97795 10.4624 2.38506 8.23861 2.38506Z" fill="#0F1B07"/>
<path d="M26.5042 30.2781C24.1465 30.2781 22.6595 29.6583 22.0433 28.4186C21.9093 28.1491 21.8424 27.9065 21.8424 27.6909V0H24.6555V27.408C24.6555 28.1895 24.8029 28.7959 25.0976 29.2271C25.4191 29.6313 25.7406 29.8469 26.0621 29.8739L26.5042 29.9547H27.75V30.2781H26.5042Z" fill="#0F1B07"/>
<path d="M46.593 30.2781C44.7712 30.2781 43.5253 29.9278 42.8555 29.2271C42.2393 28.6342 41.9312 28.1221 41.9312 27.6909V26.842C40.6184 29.2406 38.5152 30.4398 35.6216 30.4398C32.2458 30.4398 30.3302 28.9037 29.8747 25.8314C29.8211 25.508 29.7943 25.1846 29.7943 24.8612C29.7943 24.5109 29.8479 24.1336 29.9551 23.7293C30.0622 23.3251 30.3703 22.8804 30.8794 22.3953C31.8975 21.4251 34.1347 20.8322 37.5908 20.6166C38.4482 20.5358 39.2386 20.4953 39.962 20.4953C40.6853 20.4953 41.3418 20.5223 41.9312 20.5762V13.8657C41.8776 13.8387 41.8776 13.7175 41.9312 13.5019C41.9848 13.2593 41.9312 12.9629 41.7704 12.6125C41.6365 12.2352 41.4489 11.8714 41.2078 11.521C40.9667 11.1707 40.538 10.8743 39.9218 10.6317C39.3055 10.3622 38.5018 10.2275 37.5105 10.2275C36.5192 10.2275 35.3537 10.4161 34.0141 10.7934C32.7013 11.1437 31.7367 11.4941 31.1205 11.8444L30.9598 11.5615C33.3443 10.4565 35.769 9.90406 38.2339 9.90406C40.9935 9.90406 42.8153 10.4026 43.6995 11.3998C44.3961 12.1813 44.7444 13.0033 44.7444 13.8657V27.408C44.7444 28.1895 44.8917 28.7959 45.1864 29.2271C45.5079 29.6313 45.8295 29.8469 46.151 29.8739L46.593 29.9547H47.8389V30.2781H46.593ZM36.2646 30.1164C37.6846 30.1164 38.9573 29.6313 40.0825 28.6611C41.2346 27.664 41.8508 26.7073 41.9312 25.791V20.8996C41.2078 20.8457 40.471 20.8187 39.7208 20.8187C38.9974 20.8187 38.274 20.8592 37.5507 20.94C35.5144 21.1826 34.1882 21.6407 33.572 22.3144C32.9558 22.9882 32.6477 23.918 32.6477 25.1038C32.6477 25.3194 32.6611 25.5619 32.6879 25.8314C32.929 28.6881 34.1213 30.1164 36.2646 30.1164Z" fill="#0F1B07"/>
<path d="M66.7283 30.2781C65.6298 30.2781 64.7859 30.0356 64.1965 29.5505C63.6338 29.0654 63.3391 28.5803 63.3123 28.0952L63.2721 27.408V14.7146C63.2721 12.5856 62.7229 11.2246 61.6244 10.6317C61.0618 10.3622 60.3652 10.2275 59.5346 10.2275C57.8199 10.2275 56.2794 10.9147 54.913 12.2891C53.5466 13.6366 52.8634 14.8493 52.8634 15.9273V30.2781H50.0502V10.0658H52.8634V14.6742C53.3188 13.5153 54.1628 12.4373 55.3952 11.4402C56.6277 10.4161 57.9807 9.90406 59.4542 9.90406C60.9278 9.90406 62.1201 10.0523 63.031 10.3487C63.9687 10.6182 64.6519 11.009 65.0806 11.521C65.7504 12.3565 66.0853 13.4345 66.0853 14.755V27.408C66.0853 28.1895 66.2327 28.7959 66.5274 29.2271C66.8489 29.6313 67.1704 29.8469 67.4919 29.8739L67.934 29.9547H69.1798V30.2781H66.7283Z" fill="#0F1B07"/>
<path d="M71.0031 10.3892V10.0658H71.847V6.02328H74.6602V10.0658H80.809V10.3892H74.6602V25.1038C74.6602 26.8555 74.8477 28.1221 75.2228 28.9037C75.6247 29.6852 76.4419 30.076 77.6743 30.076C78.9335 30.076 80.2062 29.82 81.4922 29.3079L81.6128 29.6313C80.2732 30.1434 78.7326 30.3994 76.9911 30.3994C75.2764 30.3994 73.9904 30.049 73.133 29.3484C72.2757 28.6207 71.847 27.1924 71.847 25.0633V10.3892H71.0031Z" fill="#0F1B07"/>
<path d="M103.107 14.4948V14.1714H103.951V10.1289H106.764V14.1714H112.913V14.4948H106.764V29.2094C106.764 30.9611 106.951 32.2278 107.326 33.0093C107.728 33.7909 108.545 34.1816 109.778 34.1816C111.037 34.1816 112.31 33.9256 113.596 33.4136L113.716 33.737C112.377 34.249 110.836 34.505 109.095 34.505C107.38 34.505 106.094 34.1547 105.237 33.454C104.379 32.7263 103.951 31.298 103.951 29.169V14.4948H103.107Z" fill="#0F1B07"/>
<path d="M126.254 34.5455C123.441 34.5455 121.151 33.737 119.382 32.12C117.614 30.503 116.73 28.0101 116.73 24.6414C116.73 21.2727 117.641 18.6585 119.463 16.799C121.311 14.9395 123.642 14.0097 126.455 14.0097C129.295 14.0097 131.6 14.8182 133.368 16.4352C135.136 18.0522 136.02 20.545 136.02 23.9138C136.02 27.2825 135.096 29.8966 133.247 31.7561C131.425 33.6157 129.094 34.5455 126.254 34.5455ZM126.536 14.3331C124.5 14.3331 122.812 15.2494 121.472 17.082C120.132 18.8876 119.463 21.4209 119.463 24.6818C119.463 27.9158 120.079 30.3143 121.311 31.8774C122.544 33.4405 124.178 34.2221 126.214 34.2221C128.25 34.2221 129.938 33.3192 131.278 31.5136C132.618 29.681 133.287 27.1477 133.287 23.9138C133.287 20.6528 132.671 18.2408 131.439 16.6777C130.206 15.1146 128.572 14.3331 126.536 14.3331Z" fill="#0F1B07"/>
<path d="M146.894 15.9097V15.0607C145.688 15.5458 144.59 16.5295 143.599 18.0117C142.607 19.467 142.085 20.8415 142.031 22.1351V34.3838H139.218V14.1714H142.031V20.5989C142.46 19.0358 143.277 17.5671 144.483 16.1926C145.688 14.7912 147.055 14.0636 148.582 14.0097H148.743C149.279 14.0097 149.721 14.1983 150.069 14.5756C150.444 14.926 150.632 15.3707 150.632 15.9097C150.632 16.4487 150.444 16.8933 150.069 17.2437C149.721 17.594 149.279 17.7692 148.743 17.7692C148.207 17.7692 147.765 17.594 147.416 17.2437C147.068 16.8933 146.894 16.4487 146.894 15.9097Z" fill="#0F1B07"/>
<path d="M155.177 24.5201C155.177 27.8619 155.753 30.3143 156.905 31.8774C158.084 33.4405 159.624 34.2221 161.527 34.2221C164.206 34.2221 166.59 33.8178 168.68 33.0093L168.801 33.2923C166.657 34.1277 164.233 34.5455 161.527 34.5455C158.847 34.5455 156.664 33.737 154.976 32.12C153.288 30.503 152.444 28.0101 152.444 24.6414C152.444 21.2727 153.328 18.6585 155.097 16.799C156.865 14.9395 159.115 14.0097 161.848 14.0097C164.045 14.0097 165.894 14.67 167.394 15.9905C168.894 17.311 169.645 19.2649 169.645 21.8521C169.645 21.9868 169.645 22.1216 169.645 22.2563H155.297C155.217 22.984 155.177 23.7386 155.177 24.5201ZM166.912 21.9329C166.885 19.3458 166.389 17.4323 165.425 16.1926C164.46 14.9529 163.215 14.3331 161.687 14.3331C160.16 14.3331 158.794 15.0068 157.588 16.3543C156.409 17.7018 155.659 19.5614 155.338 21.9329H166.912Z" fill="#0F1B07"/>
<path d="M95.8055 11.4756C95.3769 11.1252 94.6803 10.8288 93.7157 10.5862C92.778 10.3437 92.068 10.2224 91.5858 10.2224C91.1035 10.2224 90.8222 10.2224 90.7418 10.2224C89.295 10.2494 88.2501 10.6267 87.6071 11.3543C86.9641 12.055 86.6426 12.85 86.6426 13.7394C86.6426 14.6287 86.9239 15.3833 87.4866 16.0031C88.0492 16.596 88.7458 17.0677 89.5764 17.418C90.4337 17.7414 91.3446 18.1187 92.3091 18.5499C93.3005 18.9811 94.2114 19.4258 95.042 19.8839C95.8993 20.3151 96.6093 20.9619 97.1719 21.8243C97.7346 22.6597 98.0159 23.7108 98.0159 24.9774C98.0159 26.2441 97.5738 27.3221 96.6897 28.2114C95.8055 29.1008 94.8142 29.6936 93.7157 29.9901C92.6441 30.2865 91.4786 30.4348 90.2194 30.4348C87.4865 30.4348 85.4369 29.8284 84.0705 28.6157L84.3117 28.3731C84.8475 28.8852 85.6379 29.3029 86.6828 29.6263C87.7545 29.9497 88.786 30.1114 89.7773 30.1114C91.358 30.1114 92.6575 29.6802 93.6756 28.8178C94.7205 27.9284 95.2429 26.837 95.2429 25.5434C95.2429 24.2228 94.8544 23.1718 94.0774 22.3902C93.3005 21.5818 92.3493 20.9619 91.2241 20.5307C90.1256 20.0726 89.0137 19.6279 87.8884 19.1967C86.7632 18.7385 85.812 18.1187 85.0351 17.3372C84.2581 16.5287 83.8696 15.5989 83.8696 14.5479C83.8696 13.4968 84.1107 12.6479 84.593 12.0011C85.0753 11.3273 85.7183 10.8557 86.522 10.5862C87.8884 10.1281 89.2548 9.89901 90.6212 9.89901C92.9254 9.89901 94.7204 10.3302 96.0065 11.1926L95.8055 11.4756Z" fill="#7EB54D"/>
<path d="M98.4966 7.77924C96.0585 6.83599 93.7544 6.36437 91.5842 6.36437C89.4408 6.36437 87.7663 6.82252 86.5607 7.73881C85.355 8.65511 84.7522 9.92175 84.7522 11.5387C84.7522 13.5061 85.7703 15.0287 87.8065 16.1067C88.7174 16.5649 89.7087 16.9961 90.7804 17.4003C91.8789 17.7776 92.9774 18.2088 94.0759 18.6939C95.1744 19.179 96.1791 19.7315 97.09 20.3513C98.0009 20.9712 98.7377 21.8336 99.3003 22.9385C99.863 24.0165 100.144 25.4044 100.144 27.1023C100.144 28.7731 99.6754 30.2015 98.7377 31.3873C97.8 32.5731 96.6613 33.3816 95.3217 33.8128C94.0089 34.217 92.4683 34.4191 90.7 34.4191C87.4046 34.4191 84.5914 33.5972 82.2605 31.9532L82.4614 31.6298C83.3456 32.3305 84.4843 32.9099 85.8775 33.3681C87.2974 33.7993 88.7442 34.0149 90.2178 34.0149C92.388 34.0149 94.2366 33.5163 95.7638 32.5192C97.3177 31.4951 98.0947 29.9994 98.0947 28.032C98.0947 25.876 97.0766 24.1917 95.0404 22.9789C94.1295 22.4399 93.1247 21.9414 92.0263 21.4832C90.9546 21.0251 89.8695 20.5535 88.771 20.0684C87.6725 19.5563 86.6678 18.9904 85.7569 18.3705C83.7207 17.023 82.7026 15.1096 82.7026 12.6302C82.7026 10.6629 83.359 9.07283 84.6718 7.86009C85.9846 6.6204 87.9538 6.00055 90.5795 6.00055C93.2319 6.00055 95.9245 6.4587 98.6573 7.37499L98.4966 7.77924Z" fill="#7EB54D"/>
</svg>
