<svg width="88" height="31" viewBox="0 0 88 31" xmlns="http://www.w3.org/2000/svg">
<path fill-rule="evenodd" clip-rule="evenodd" d="M45.5659 9.57038L49.6903 9.30541C49.7844 9.97565 49.9569 10.4744 50.2392 10.8329C50.694 11.3941 51.3213 11.6746 52.1524 11.6746C52.764 11.6746 53.2502 11.5343 53.5795 11.2382C53.8932 11.0044 54.0813 10.6303 54.0813 10.2406C54.0813 9.86654 53.9088 9.50804 53.6109 9.27423C53.2972 8.99367 52.5602 8.7131 51.3997 8.46371C49.5021 8.04286 48.1378 7.48173 47.338 6.76473C46.5382 6.0945 46.0834 5.11252 46.1148 4.06819C46.1148 3.35119 46.3344 2.63419 46.7421 2.04189C47.2126 1.37165 47.8555 0.841695 48.6239 0.545543C49.4551 0.187043 50.6156 0 52.074 0C53.8618 0 55.2261 0.327326 56.1671 0.997564C57.108 1.65222 57.6725 2.71213 57.8451 4.16171L53.7677 4.39552C53.6579 3.77204 53.4384 3.32002 53.0777 3.02387C52.717 2.72772 52.2465 2.58743 51.6349 2.58743C51.1331 2.58743 50.7567 2.69654 50.5058 2.89917C50.2706 3.08622 50.1138 3.36678 50.1294 3.67852C50.1294 3.91232 50.2549 4.13054 50.4431 4.27082C50.6469 4.45787 51.1331 4.62932 51.9015 4.78519C53.7991 5.19045 55.1477 5.59571 55.9789 6.01656C56.81 6.43741 57.406 6.95178 57.7666 7.55967C57.7985 7.61242 57.829 7.66585 57.8581 7.71989C58.5958 5.90172 59.8959 4.18627 61.6755 2.85333C66.1234 -0.478166 72.0566 -0.289079 74.8938 3.45299C77.731 7.19505 76.2786 12.916 71.8307 16.2475C71.6332 16.3955 71.4327 16.5365 71.2297 16.6706C72.7805 16.9046 74.0294 17.489 74.9699 18.4238C75.6024 19.0524 76.0795 19.8079 76.397 20.69V16.8027H76.4127H80.741V27.3083H87.5V30.7375H76.397V26.8325C76.2935 27.1284 76.1732 27.4064 76.0363 27.6668C75.5031 28.6956 74.672 29.5373 73.6526 30.0984C72.6019 30.6751 71.3003 30.9713 69.7478 30.9713C68.1639 30.9713 66.8623 30.7219 65.8272 30.2231C64.7609 29.6931 63.8827 28.867 63.3024 27.8539C62.6594 26.7628 62.3301 25.4067 62.3301 23.7701C62.3301 21.5615 62.9357 19.8227 64.1326 18.5679C61.9293 18.3641 59.9346 17.3918 58.6124 15.6479C57.8965 14.7036 57.4537 13.6334 57.2633 12.5073C56.7809 13.0809 56.1711 13.5318 55.477 13.8256C54.5832 14.2153 53.4541 14.4179 52.1054 14.4179C49.7217 14.4179 48.0751 13.9659 47.1498 13.0463C46.2246 12.1266 45.6757 10.9732 45.5659 9.57038ZM1.79706 14.1685V0.249391H9.02653C10.3595 0.249391 11.3945 0.3585 12.1002 0.592304C12.7902 0.810521 13.4018 1.26254 13.8096 1.87043C14.2644 2.54067 14.4839 3.32002 14.4682 4.13054C14.5153 5.50219 13.8096 6.8115 12.6021 7.49732C12.1316 7.7623 11.6141 7.94934 11.0809 8.04286C11.4729 8.15197 11.865 8.33902 12.21 8.55723C12.4766 8.77545 12.6961 9.02484 12.9 9.28982C13.1352 9.5548 13.3391 9.85095 13.5116 10.1627L15.613 14.1997H10.6888L8.36788 9.9133C8.06992 9.36775 7.819 9.00925 7.58377 8.8378C7.27013 8.61958 6.89376 8.51047 6.51738 8.51047H6.14101V14.1685H1.79706ZM6.14101 5.89187H7.97582C8.36788 5.86069 8.74425 5.79834 9.12062 5.70482C9.4029 5.65806 9.65381 5.50219 9.82632 5.26839C10.2497 4.70726 10.187 3.91232 9.6695 3.42913C9.38722 3.19532 8.83834 3.07063 8.05423 3.07063H6.14101V5.89187ZM0.809082 26.1237L4.93349 25.8587C5.02758 26.529 5.20008 27.0278 5.48236 27.3863C5.92146 27.9474 6.56443 28.2435 7.39558 28.2435C8.00719 28.2435 8.49333 28.1033 8.82266 27.8071C9.1363 27.5577 9.32449 27.1992 9.32449 26.8095C9.32449 26.4355 9.15198 26.077 8.85402 25.8432C8.54038 25.5626 7.80332 25.282 6.62716 25.0326C4.72962 24.6118 3.36527 24.0507 2.56548 23.3337C1.76569 22.6634 1.31091 21.6814 1.34228 20.6371C1.34228 19.9201 1.56183 19.2031 1.96956 18.6108C2.44003 17.9406 3.08299 17.4106 3.85142 17.1145C4.68257 16.756 5.84305 16.5689 7.30149 16.5689C9.08926 16.5689 10.4536 16.8962 11.3945 17.5665C12.0548 18.0368 12.522 18.6913 12.8016 19.5407C13.045 19.1288 13.3338 18.7564 13.6685 18.4238C14.9074 17.1924 16.6481 16.5689 18.9063 16.5689C20.6784 16.5689 22.0584 16.9274 23.0778 17.6288C24.0814 18.3458 24.8342 19.4369 25.336 20.9021L21.5095 21.7438C21.4155 21.4165 21.2743 21.0891 21.0861 20.8086C20.8509 20.4813 20.5529 20.2319 20.1922 20.0448C19.8316 19.8578 19.4238 19.7798 19.0161 19.7798C18.0281 19.7798 17.2754 20.1695 16.7579 20.9645C16.3658 21.5412 16.1619 22.4608 16.1619 23.7077C16.1619 25.2509 16.3972 26.3108 16.8676 26.8875C17.3381 27.4642 17.9967 27.7448 18.8593 27.7448C19.6904 27.7448 20.3177 27.511 20.7411 27.0589C21.1645 26.5757 21.4782 25.9055 21.6664 25.0326L25.4614 26.1705C25.2576 27.1213 24.8342 28.0253 24.2539 28.8203C23.7207 29.5217 23.015 30.0672 22.2152 30.4257C21.3998 30.7842 20.3648 30.9713 19.1102 30.9713C17.589 30.9713 16.3344 30.7531 15.3778 30.3166C14.4835 29.9152 13.7086 29.2237 13.0409 28.2541C12.9653 28.4 12.8817 28.5422 12.7902 28.68C12.2727 29.4437 11.5514 30.036 10.7045 30.3945C9.81063 30.7842 8.68152 30.9868 7.33286 30.9868C4.94917 30.9868 3.30254 30.5348 2.3773 29.6152C1.45205 28.68 0.934539 27.5265 0.809082 26.1237ZM8.97948 20.9644L12.2451 20.7772C12.025 21.4431 11.8903 22.1833 11.8402 22.9967C11.6426 22.8625 11.426 22.7358 11.1907 22.6167C10.3595 22.1958 9.01085 21.7906 7.11331 21.3853C6.34488 21.2294 5.85873 21.058 5.65487 20.8709C5.46668 20.7306 5.34122 20.5124 5.34122 20.2786C5.32554 19.9669 5.46668 19.6863 5.71759 19.4993C5.96851 19.2811 6.34488 19.1719 6.84671 19.1719C7.45831 19.1564 7.94446 19.2966 8.28947 19.5928C8.65016 19.8889 8.86971 20.341 8.97948 20.9644ZM30.5268 16.8027H34.8551V21.6814H39.5911V16.8027H43.9507V20.4337C44.2658 19.6742 44.7054 19.0141 45.2679 18.455C46.5382 17.1924 48.326 16.5533 50.5999 16.5533C52.9365 16.5533 54.7243 17.1768 55.9945 18.4238C57.2648 19.6707 57.8921 21.4165 57.8921 23.661C57.8921 25.2976 57.6098 26.6225 57.0609 27.6668C56.5277 28.6956 55.6966 29.5373 54.6772 30.0984C53.6265 30.6751 52.3249 30.9713 50.7724 30.9713C49.1885 30.9713 47.8869 30.7219 46.8518 30.2231C45.7855 29.6931 44.9073 28.867 44.327 27.8539C44.1866 27.6155 44.0611 27.3645 43.9507 27.1007V30.7375H39.5911V25.095H34.8551V30.7375H30.5268V16.8027ZM48.4671 26.8251C47.9496 26.2017 47.683 25.1885 47.683 23.7857C47.683 22.3673 47.9496 21.3541 48.4828 20.7462C49.016 20.1383 49.7844 19.7954 50.5842 19.8266C51.4938 19.8266 52.2151 20.1228 52.7483 20.7306C53.2815 21.323 53.5481 22.2893 53.5481 23.5986C53.5481 25.1573 53.2972 26.2328 52.7797 26.8407C52.2622 27.4486 51.5408 27.7448 50.6156 27.7448C49.706 27.7448 48.9846 27.433 48.4671 26.8251ZM67.4425 26.8251C66.925 26.2017 66.6584 25.1885 66.6584 23.7857C66.6584 22.3673 66.925 21.3541 67.4582 20.7462C67.9757 20.1383 68.7598 19.7954 69.5596 19.8266C70.4691 19.8266 71.1905 20.1228 71.7237 20.7306C72.2569 21.323 72.5235 22.2893 72.5235 23.5986C72.5235 25.1573 72.2726 26.2328 71.7551 26.8407C71.2376 27.4486 70.5162 27.7448 69.591 27.7448C68.6814 27.7448 67.96 27.433 67.4425 26.8251ZM62.053 3.35126C57.7856 6.54757 56.5505 11.8923 59.1134 15.2726C61.6763 18.653 67.1858 18.9459 71.4532 15.7496C75.7206 12.5533 76.9558 7.20855 74.3929 3.82821C71.8299 0.447874 66.3204 0.154947 62.053 3.35126ZM63.914 7.43498L62.3458 8.52606L64.5413 11.5967C64.7138 11.7993 64.8236 12.0643 64.8706 12.3293C64.8863 12.5163 64.7765 12.7034 64.6197 12.7969C64.5413 12.8592 64.4315 12.906 64.3218 12.906C64.1806 12.906 64.0552 12.8592 63.9454 12.7813C63.7886 12.6566 63.6474 12.5007 63.5377 12.3293L62.189 13.5762C62.4399 13.9191 62.7692 14.1841 63.1456 14.3712C63.4906 14.527 63.867 14.5894 64.2277 14.527C64.604 14.4647 65.0431 14.2621 65.5607 13.9036C65.9998 13.623 66.3291 13.2333 66.5329 12.7657C66.6898 12.3916 66.7211 11.9708 66.6114 11.5811C66.4232 11.0667 66.1723 10.5991 65.8429 10.1627L63.914 7.43498ZM68.4775 9.13395L67.0505 10.2562C67.4111 10.7082 67.913 11.02 68.5246 11.1135C69.0891 11.207 69.7948 10.9576 70.6574 10.3653C71.0808 10.0848 71.4415 9.72626 71.7237 9.30541C71.9433 8.9625 72.0531 8.57282 72.0374 8.16756C72.0217 7.77789 71.8962 7.4038 71.6767 7.09206C71.5042 6.82709 71.2533 6.60887 70.9553 6.48417C70.626 6.34389 70.2653 6.31272 69.9203 6.37506C69.5126 6.43741 68.9166 6.62446 68.1325 6.95178C67.8189 7.09206 67.5993 7.15441 67.4739 7.13883C67.3641 7.13883 67.27 7.07648 67.2073 6.99854C67.1289 6.88943 67.0975 6.74915 67.1446 6.62446C67.2073 6.453 67.3171 6.31272 67.4739 6.2192L67.5209 6.17243C67.8816 5.89187 68.4148 5.9698 68.6971 6.3283L70.1085 5.22163C69.6694 4.73844 69.1989 4.50463 68.6971 4.50463C68.1953 4.50463 67.615 4.72285 66.9564 5.17487C66.5173 5.45543 66.1566 5.81393 65.8586 6.23478C65.6547 6.53093 65.5607 6.88943 65.5607 7.24793C65.5763 7.55967 65.6704 7.87141 65.8586 8.13639C66.1095 8.52606 66.5329 8.75987 66.9877 8.80663C67.4582 8.85339 68.0855 8.72869 68.8853 8.40137C69.3714 8.19874 69.7007 8.1208 69.8889 8.13639C69.936 8.13639 69.983 8.15198 70.0301 8.16756C70.3123 8.26108 70.4692 8.57282 70.3751 8.85339C70.3123 9.07161 70.1555 9.24306 69.9673 9.36776C69.7007 9.57039 69.3714 9.63274 69.0578 9.53921C68.8382 9.46128 68.6344 9.321 68.4775 9.13395Z"/>
</svg>
