<svg width="24" height="24" viewBox="0 0 24 24" fill="#000000" xmlns="http://www.w3.org/2000/svg">
<path fill-rule="evenodd" clip-rule="evenodd" d="M5.02312 4.0607C6.97049 2.40649 9.44371 1.49875 12 1.5C14.5548 1.49875 17.0269 2.40552 18.9738 4.05814C20.9208 5.71081 22.2157 8.00155 22.6269 10.5206C23.038 13.0396 22.5386 15.6226 21.2179 17.8075C19.994 19.8323 17.7593 21.934 15.3696 22.4596C15.0365 22.5329 14.6856 22.5157 14.4145 22.2941C14.1471 22.0756 14.0806 21.7585 14.0806 21.5152C14.0806 20.5726 14.0077 19.5978 14.0821 18.6585C14.1043 18.3769 14.0657 18.0938 13.9687 17.8284C13.8718 17.563 13.7188 17.3216 13.5201 17.1206C13.3914 16.9903 13.3486 16.7981 13.4097 16.6256C13.4708 16.453 13.6251 16.3305 13.8072 16.3101C14.9312 16.1841 15.9872 15.9164 16.7621 15.2673C17.8111 14.3885 18.0531 13.0056 18.0745 11.7075C18.0894 10.81 17.7564 9.94148 17.1451 9.28355C17.0241 9.15333 16.9855 8.96679 17.0447 8.79927C17.2859 8.11784 17.2896 7.37799 17.0604 6.69819C16.257 6.76468 15.4835 7.24957 14.8365 7.68675C14.721 7.76477 14.5772 7.78858 14.4427 7.75197C12.8403 7.31569 11.1501 7.31569 9.54768 7.75197C9.41319 7.78858 9.2694 7.76477 9.15393 7.68675C8.50678 7.24948 7.73272 6.76413 6.92899 6.69812C6.69802 7.37716 6.70192 8.11725 6.94514 8.79788C7.00519 8.96591 6.96649 9.15337 6.84482 9.28399C5.40209 10.8329 5.61275 13.9108 7.22697 15.2665C8.003 15.9183 9.05857 16.1891 10.1739 16.3149C10.3575 16.3356 10.5127 16.4601 10.5726 16.6346C10.6326 16.8092 10.5866 17.0026 10.4544 17.1315C10.1605 17.4183 9.97854 17.8004 9.94129 18.2091C9.92546 18.3827 9.81625 18.534 9.65631 18.6037C9.32696 18.7473 8.71995 18.9629 8.0434 18.9021C7.45029 18.8488 6.83858 18.5853 6.33944 17.9634C6.49766 18.3471 6.61646 18.6771 6.94898 18.9537C7.32901 19.2697 8.03979 19.5925 9.34932 19.309C9.49068 19.2784 9.63829 19.3134 9.75087 19.4041C9.86346 19.4948 9.92891 19.6315 9.92891 19.776V21.52C9.92891 21.7534 9.84562 22.039 9.61122 22.2479C9.35051 22.4804 8.92944 22.5618 8.59647 22.4511C6.17092 21.6448 4.11191 20.0022 2.78814 17.8176C1.46437 15.633 0.962284 13.0491 1.3718 10.5284C1.78131 8.00771 3.07568 5.71497 5.02312 4.0607ZM4.96342 15.7766C5.25048 15.8167 5.74125 15.9778 6.07428 16.2023C6.40691 16.4265 6.68399 16.7235 6.88449 17.0707C7.26433 17.7203 7.7228 17.9138 8.12907 17.9503C8.45591 17.9797 8.7776 17.9086 9.03347 17.8212C9.08226 17.5862 9.16225 17.3596 9.27069 17.1473C8.33592 16.9728 7.38547 16.6481 6.61138 15.998C5.59268 15.1424 4.95524 13.7901 4.95452 11.7189C4.93982 10.6707 5.29693 9.6542 5.95745 8.84719C5.69697 7.92166 5.76586 6.93102 6.15775 6.04644C6.23012 5.88307 6.38034 5.79135 6.55022 5.76043C7.56919 5.57498 8.70626 6.25415 9.50802 6.77472C11.141 6.3673 12.8493 6.3673 14.4823 6.77472C15.2841 6.25415 16.4212 5.57498 17.4401 5.76043C17.6105 5.79144 17.7611 5.88369 17.8332 6.0478C18.2219 6.93257 18.2903 7.92172 18.0322 8.84691C18.6918 9.65446 19.0475 10.6713 19.031 11.7193C19.0302 13.7941 18.3958 15.1458 17.3767 15.9995C16.6016 16.6489 15.6485 16.9709 14.7093 17.1439C14.7697 17.2589 14.8226 17.3781 14.8674 17.5008C15.0091 17.8888 15.067 18.3023 15.0372 18.7142C15.0372 19.0501 14.9714 21.5641 15.1413 21.5311C17.3376 20.7905 19.2005 19.2964 20.399 17.3135C21.6023 15.3229 22.0573 12.9695 21.6827 10.6744C21.3081 8.37924 20.1283 6.29212 18.3544 4.78636C16.5905 3.28909 14.3141 2.45561 11.9997 2.45561C9.67063 2.45441 7.41714 3.28147 5.64281 4.78869C3.86848 6.29591 2.68916 8.38485 2.31605 10.6815C1.94294 12.9781 2.40042 15.3324 3.60652 17.3228C4.80621 19.3026 6.66868 20.7938 8.86335 21.5327C9.14794 21.5725 8.97231 20.5389 8.97231 20.34C7.73363 20.4833 6.88876 20.147 6.33692 19.6881C6.02975 19.4326 5.83116 19.1537 5.70877 18.9374C5.35832 18.318 5.17164 17.69 4.55586 17.2705C4.31854 17.1088 4.09753 16.923 4.00177 16.694C3.94391 16.5556 3.92398 16.3809 3.99983 16.2073C4.06916 16.0486 4.18989 15.9579 4.2736 15.9099C4.47182 15.7964 4.74189 15.7456 4.96342 15.7766Z"/>
</svg>
