<svg width="32" height="32" viewBox="0 0 32 32" xmlns="http://www.w3.org/2000/svg">
<path fill-rule="evenodd" clip-rule="evenodd" d="M19.5 9.5C19.5 11.433 17.933 13 16 13C14.067 13 12.5 11.433 12.5 9.5C12.5 7.567 14.067 6 16 6C17.933 6 19.5 7.567 19.5 9.5ZM17.6304 13.6956C19.3097 13.0425 20.5 11.4102 20.5 9.5C20.5 7.01472 18.4853 5 16 5C13.5147 5 11.5 7.01472 11.5 9.5C11.5 11.4211 12.7039 13.0611 14.3984 13.7066C13.1976 13.9879 11.7856 14.5856 10.5161 15.674C8.56807 17.344 7 20.1314 7 24.5714V24.864L7.2551 25.0073C8.72875 25.8352 12.5439 27.5 16.0464 27.5C19.5136 27.5 23.289 25.8342 24.7469 25.0062L25 24.8625V24.5714C25 20.1333 23.4498 17.3464 21.5222 15.6757C20.2487 14.572 18.8299 13.9723 17.6304 13.6956ZM16.0464 26.5C12.974 26.5 9.56015 25.0982 8.00247 24.2756C8.06984 20.274 9.50353 17.8593 11.167 16.4332C12.8914 14.9549 14.9082 14.5 16.0464 14.5C17.1698 14.5 19.1626 14.954 20.8673 16.4314C22.5122 17.8571 23.9313 20.2727 23.9976 24.2771C22.4569 25.0996 19.0825 26.5 16.0464 26.5Z"/>
</svg>
