<svg width="32" height="32" viewBox="0 0 32 32" xmlns="http://www.w3.org/2000/svg">
<path fill-rule="evenodd" clip-rule="evenodd" d="M16.085 22.9983C12.9444 23.0666 9.6805 21.1035 5.39358 16.6287C5.47185 16.5821 5.54798 16.5318 5.6217 16.4795C5.96446 16.2366 6.32264 15.9015 6.69018 15.5243C7.0467 15.1584 7.42866 14.7352 7.82913 14.2915L7.87264 14.2433C8.29146 13.7794 8.73363 13.2906 9.20379 12.8028C11.1075 10.8275 13.3522 9 16 9C18.6479 9 20.8925 10.8275 22.7963 12.8028C23.2664 13.2906 23.7086 13.7794 24.1274 14.2433L24.1708 14.2915L24.1709 14.2915C24.5713 14.7352 24.9533 15.1584 25.3099 15.5243C25.6774 15.9015 26.0356 16.2366 26.3783 16.4795C26.4483 16.5292 26.5205 16.577 26.5946 16.6216C22.4328 20.8243 19.2297 22.9298 16.085 22.9983ZM16 8C12.8979 8 10.3925 10.1283 8.48376 12.1088C8.00079 12.6099 7.54843 13.1101 7.13034 13.5733L7.09348 13.6141L7.09346 13.6141C6.68735 14.064 6.31682 14.4745 5.97393 14.8265C5.61881 15.191 5.31098 15.474 5.04339 15.6637C4.76612 15.8603 4.59378 15.9116 4.50002 15.9116L4.13464 16.7529C8.69673 21.6366 12.3669 24.0795 16.1067 23.998C19.8339 23.9169 23.4337 21.3287 27.8592 16.7594L27.5 15.9116C27.4063 15.9116 27.2339 15.8603 26.9567 15.6637C26.6891 15.474 26.3812 15.191 26.0261 14.8265C25.6832 14.4745 25.3127 14.0641 24.9066 13.6141L24.8697 13.5733C24.4516 13.1101 23.9993 12.6099 23.5163 12.1088C21.6075 10.1283 19.1022 8 16 8ZM20.5002 15.8841C20.5002 18.5871 18.4359 20.686 16.0002 20.686C13.5646 20.686 11.5002 18.5871 11.5002 15.8841C11.5002 13.1812 13.5646 11.0823 16.0002 11.0823C18.4359 11.0823 20.5002 13.1812 20.5002 15.8841ZM21.5002 15.8841C21.5002 19.0884 19.0378 21.686 16.0002 21.686C12.9627 21.686 10.5002 19.0884 10.5002 15.8841C10.5002 12.6799 12.9627 10.0823 16.0002 10.0823C19.0378 10.0823 21.5002 12.6799 21.5002 15.8841Z"/>
</svg>
