<svg width="32" height="32" viewBox="0 0 32 32" xmlns="http://www.w3.org/2000/svg">
<path fill-rule="evenodd" clip-rule="evenodd" d="M16.0854 18.218C12.8059 18.2857 9.40129 16.2616 4.85609 11.6491L4.1438 12.3509C5.28304 13.5071 6.36633 14.5185 7.40858 15.3844L4.14648 18.6464L4.85359 19.3536L8.19291 16.0142C9.667 17.1561 11.0636 17.9947 12.4275 18.5271L10.0528 23.2764L10.9473 23.7236L13.3833 18.8515C14.2965 19.1141 15.1995 19.2365 16.1061 19.2178C16.7924 19.2036 17.4747 19.1086 18.1588 18.9358L20.5527 23.7236L21.4472 23.2764L19.1288 18.6396C20.5411 18.135 21.9734 17.3079 23.4777 16.1849L26.6464 19.3536L27.3535 18.6464L24.2749 15.5678C25.4144 14.6554 26.5989 13.5816 27.8497 12.3573L27.1502 11.6427C22.7235 15.9754 19.3765 18.1501 16.0854 18.218Z"/>
</svg>
