<svg width="32" height="32" viewBox="0 0 32 32" xmlns="http://www.w3.org/2000/svg">
<path fill-rule="evenodd" clip-rule="evenodd" d="M5.21827 8.5H3V7.5H5.21827C6.71098 7.5 8.07784 8.4326 8.34434 9.82521L8.38144 10.0191H25.5042C26.6566 10.0191 27.7186 10.948 27.4639 12.1377L27.4599 12.1566L25.9887 17.1251C25.7926 17.9889 24.9541 18.536 24.0697 18.5506L9.3804 20.5596L7.36216 10.0132C7.20504 9.19214 6.34119 8.5 5.21827 8.5ZM8.5728 11.0191L10.1844 19.4404L23.9995 17.5509H24.0335C24.5723 17.5509 24.9446 17.2255 25.0153 16.8953L25.0193 16.8765L26.4892 11.9127C26.5591 11.5284 26.2101 11.0191 25.5042 11.0191H8.5728ZM12.5 25C13.3284 25 14 24.3284 14 23.5C14 22.6716 13.3284 22 12.5 22C11.6716 22 11 22.6716 11 23.5C11 24.3284 11.6716 25 12.5 25ZM12.5 26C13.8807 26 15 24.8807 15 23.5C15 22.1193 13.8807 21 12.5 21C11.1193 21 10 22.1193 10 23.5C10 24.8807 11.1193 26 12.5 26ZM24 23.5C24 24.3284 23.3284 25 22.5 25C21.6716 25 21 24.3284 21 23.5C21 22.6716 21.6716 22 22.5 22C23.3284 22 24 22.6716 24 23.5ZM25 23.5C25 24.8807 23.8807 26 22.5 26C21.1193 26 20 24.8807 20 23.5C20 22.1193 21.1193 21 22.5 21C23.8807 21 25 22.1193 25 23.5Z"/>
</svg>
